<svg xmlns="http://www.w3.org/2000/svg" width="720" height="420" viewBox="0 0 720 420">
  <rect width="720" height="420" fill="#fff"/><text x="360" y="36" text-anchor="middle" font-family="Arial" font-size="25" font-weight="bold" fill="#182433">Compressed-air service brake</text>
  <g stroke="#182433" stroke-width="5" font-family="Arial" font-size="18" text-anchor="middle"><rect x="35" y="150" width="125" height="90" rx="18" fill="#66aee8"/><text x="98" y="190">Compressor</text><text x="98" y="215">+ dryer</text><rect x="215" y="140" width="145" height="110" rx="50" fill="#d9e2e8"/><text x="288" y="190">Air</text><text x="288" y="215">reservoir</text><rect x="415" y="150" width="105" height="90" rx="12" fill="#f3a712"/><text x="468" y="190">Foot</text><text x="468" y="215">valve</text><rect x="580" y="80" width="110" height="85" rx="35" fill="#55ad3a"/><text x="635" y="127">Chamber</text><rect x="580" y="260" width="110" height="85" rx="35" fill="#55ad3a"/><text x="635" y="307">Chamber</text></g>
  <path d="M160 195 H215 M360 195 H415 M520 180 H550 V123 H580 M520 210 H550 V303 H580" fill="none" stroke="#ef5b45" stroke-width="10"/><text x="360" y="385" text-anchor="middle" font-family="Arial" font-size="19" fill="#182433">Stored pressure applies wheel brakes through relay/control valves</text>
</svg>
